<svg xmlns="http://www.w3.org/2000/svg" style="display: none;">
<symbol id="home" viewBox="0 0 512 512"><title>home</title><g> <g> <polygon points="256,152.96 79.894,288.469 79.894,470.018 221.401,470.018 221.401,336.973 296.576,336.973 296.576,470.018 432.107,470.018 432.107,288.469 "/> </g> </g><g> <g> <polygon points="439.482,183.132 439.482,90.307 365.316,90.307 365.316,126.077 256,41.982 0,238.919 35.339,284.855 256,115.062 476.662,284.856 512,238.92 "/> </g> </g></symbol>
<symbol id="advice" viewBox="0 0 512 512"><title>advice</title><path d="m132.76 233.348h-92.935c-4.142 0-7.5 3.357-7.5 7.5s3.358 7.5 7.5 7.5h92.935c4.142 0 7.5-3.357 7.5-7.5s-3.358-7.5-7.5-7.5z"/><path d="m140.26 273.173c0-4.143-3.358-7.5-7.5-7.5h-92.935c-4.142 0-7.5 3.357-7.5 7.5s3.358 7.5 7.5 7.5h92.935c4.142 0 7.5-3.358 7.5-7.5z"/><path d="m39.825 297.998c-4.142 0-7.5 3.357-7.5 7.5s3.358 7.5 7.5 7.5h60.61c4.142 0 7.5-3.357 7.5-7.5s-3.358-7.5-7.5-7.5z"/><path d="m154.984 345.323c9.706 0 17.602-7.896 17.602-17.602v-109.097c0-9.705-7.896-17.602-17.602-17.602h-87.198c-4.142 0-7.5 3.357-7.5 7.5s3.358 7.5 7.5 7.5h87.198c1.435 0 2.602 1.167 2.602 2.602v109.098c0 1.435-1.167 2.602-2.602 2.602h-80.813c-1.305 0-2.588.341-3.721.988l-24.135 13.791v-7.279c0-4.143-3.358-7.5-7.5-7.5h-21.213c-1.435 0-2.602-1.167-2.602-2.602v-109.098c0-1.435 1.167-2.602 2.602-2.602h15.042c4.142 0 7.5-3.357 7.5-7.5s-3.358-7.5-7.5-7.5h-15.042c-9.706 0-17.602 7.897-17.602 17.602v109.098c0 9.705 7.896 17.602 17.602 17.602h13.713v12.703c0 2.674 1.423 5.145 3.735 6.486 1.164.676 2.464 1.014 3.765 1.014 1.284 0 2.568-.329 3.721-.988l33.626-19.215h78.822z"/><path d="m472.175 221.226h-92.935c-4.142 0-7.5 3.357-7.5 7.5s3.358 7.5 7.5 7.5h92.935c4.142 0 7.5-3.357 7.5-7.5s-3.358-7.5-7.5-7.5z"/><path d="m472.175 253.551h-92.935c-4.142 0-7.5 3.357-7.5 7.5s3.358 7.5 7.5 7.5h92.935c4.142 0 7.5-3.357 7.5-7.5s-3.358-7.5-7.5-7.5z"/><path d="m472.175 285.876h-60.61c-4.142 0-7.5 3.357-7.5 7.5s3.358 7.5 7.5 7.5h60.61c4.142 0 7.5-3.357 7.5-7.5s-3.358-7.5-7.5-7.5z"/><path d="m494.398 188.9h-85.155c-4.142 0-7.5 3.357-7.5 7.5s3.358 7.5 7.5 7.5h85.155c1.435 0 2.602 1.167 2.602 2.602v109.098c0 1.435-1.167 2.602-2.602 2.602h-21.213c-4.142 0-7.5 3.357-7.5 7.5v7.279l-24.135-13.791c-1.133-.647-2.416-.988-3.721-.988h-80.813c-1.435 0-2.602-1.167-2.602-2.602v-109.098c0-1.435 1.167-2.602 2.602-2.602h17.198c4.142 0 7.5-3.357 7.5-7.5s-3.358-7.5-7.5-7.5h-17.198c-9.706 0-17.602 7.896-17.602 17.602v109.098c0 9.705 7.896 17.602 17.602 17.602h78.821l33.626 19.215c1.153.659 2.438.988 3.721.988 1.3 0 2.601-.338 3.765-1.014 2.312-1.342 3.735-3.813 3.735-6.486v-12.703h13.713c9.706 0 17.602-7.896 17.602-17.602v-109.098c.001-9.705-7.895-17.602-17.601-17.602z"/><path d="m472.175 32.325h-123.24c-4.142 0-7.5 3.357-7.5 7.5s3.358 7.5 7.5 7.5h123.24c4.142 0 7.5-3.357 7.5-7.5s-3.358-7.5-7.5-7.5z"/><path d="m472.175 64.65h-123.24c-4.142 0-7.5 3.357-7.5 7.5s3.358 7.5 7.5 7.5h123.24c4.142 0 7.5-3.357 7.5-7.5s-3.358-7.5-7.5-7.5z"/><path d="m472.175 96.976h-90.915c-4.142 0-7.5 3.357-7.5 7.5s3.358 7.5 7.5 7.5h90.915c4.142 0 7.5-3.357 7.5-7.5s-3.358-7.5-7.5-7.5z"/><path d="m494.398 0h-167.687c-9.706 0-17.602 7.896-17.602 17.602v109.098c0 9.705 7.896 17.602 17.602 17.602h109.126l33.626 19.215c1.153.659 2.438.988 3.721.988 1.3 0 2.601-.338 3.765-1.014 2.312-1.342 3.735-3.813 3.735-6.486v-12.703h13.713c9.706 0 17.602-7.896 17.602-17.602v-109.098c.001-9.706-7.895-17.602-17.601-17.602zm2.602 126.699c0 1.435-1.167 2.602-2.602 2.602h-21.213c-4.142 0-7.5 3.357-7.5 7.5v7.279l-24.135-13.791c-1.133-.647-2.416-.988-3.721-.988h-111.118c-1.435 0-2.602-1.167-2.602-2.602v-109.097c0-1.435 1.167-2.602 2.602-2.602h167.687c1.435 0 2.602 1.167 2.602 2.602z"/><path d="m39.825 47.325h123.24c4.142 0 7.5-3.357 7.5-7.5s-3.358-7.5-7.5-7.5h-123.24c-4.142 0-7.5 3.357-7.5 7.5s3.358 7.5 7.5 7.5z"/><path d="m39.825 79.65h123.24c4.142 0 7.5-3.357 7.5-7.5s-3.358-7.5-7.5-7.5h-123.24c-4.142 0-7.5 3.357-7.5 7.5s3.358 7.5 7.5 7.5z"/><path d="m39.825 111.976h90.915c4.142 0 7.5-3.357 7.5-7.5s-3.358-7.5-7.5-7.5h-90.915c-4.142 0-7.5 3.357-7.5 7.5s3.358 7.5 7.5 7.5z"/><path d="m17.602 144.301h13.713v12.703c0 2.674 1.423 5.145 3.735 6.486 1.164.676 2.464 1.014 3.765 1.014 1.284 0 2.568-.329 3.721-.988l33.626-19.215h109.126c9.706 0 17.602-7.896 17.602-17.602v-109.097c0-9.706-7.896-17.602-17.601-17.602h-167.687c-9.706 0-17.602 7.896-17.602 17.602v109.098c0 9.704 7.896 17.601 17.602 17.601zm-2.602-126.699c0-1.435 1.167-2.602 2.602-2.602h167.687c1.435 0 2.602 1.167 2.602 2.602v109.098c0 1.435-1.167 2.602-2.602 2.602h-111.118c-1.305 0-2.588.341-3.721.988l-24.135 13.79v-7.279c0-4.143-3.358-7.5-7.5-7.5h-21.213c-1.435 0-2.602-1.167-2.602-2.602z"/><path d="m441.87 432.35h-54.12v-16.377c0-26.205-17.678-49.246-42.99-56.03l-54.996-14.742v-21.305c19.339-11.543 32.325-32.672 32.325-56.784v-77.782c0-16.39-13.334-29.724-29.724-29.724h-9.783c-3.217-10.513-13.01-18.183-24.563-18.183h-20.204c-26.416 0-47.906 21.49-47.906 47.906v77.782c0 24.113 12.986 45.241 32.325 56.784v21.305l-54.996 14.742c-25.312 6.784-42.99 29.825-42.99 56.03v16.377h-54.118c-4.142 0-7.5 3.357-7.5 7.5v32.325c0 4.143 3.358 7.5 7.5 7.5h6.643v24.826c0 4.143 3.358 7.5 7.5 7.5s7.5-3.357 7.5-7.5v-24.825h282.763c4.142 0 7.5-3.357 7.5-7.5s-3.358-7.5-7.5-7.5h-296.906v-17.325h356.74v17.325h-24.805c-4.142 0-7.5 3.357-7.5 7.5s3.358 7.5 7.5 7.5h10.662v24.825c0 4.143 3.358 7.5 7.5 7.5s7.5-3.357 7.5-7.5v-24.825h6.643c4.142 0 7.5-3.357 7.5-7.5v-32.325c0-4.143-3.358-7.5-7.5-7.5zm-202.396-51.968-21.775 16.591-9.534-32.471 15.416-4.132c2.489 8.556 8.277 15.718 15.893 20.012zm48.945-20.013 15.416 4.132-9.534 32.471-21.775-16.591c7.616-4.293 13.404-11.455 15.893-20.012zm18.67-171.04v31.896h-10.683c-7.005 0-12.704-5.698-12.704-12.703v-33.917h8.663c8.119 0 14.724 6.606 14.724 14.724zm-102.178 0c0-18.145 14.762-32.906 32.906-32.906h20.204c5.891 0 10.683 4.792 10.683 10.683v41.417c0 7.005-5.699 12.703-12.703 12.703h-51.089v-31.897zm0 77.782v-30.886h51.089c7.962 0 15.145-3.381 20.203-8.777 5.058 5.396 12.241 8.777 20.204 8.777h10.683v30.886c0 28.171-22.918 51.09-51.089 51.09s-51.09-22.919-51.09-51.09zm51.089 66.09c6.518 0 12.812-.963 18.764-2.729v20.483c0 10.347-8.417 18.765-18.764 18.765s-18.764-8.418-18.764-18.765v-20.483c5.952 1.766 12.246 2.729 18.764 2.729zm-116.75 82.772c0-19.43 13.107-36.512 31.874-41.542l22.549-6.044 12.705 43.272c.695 2.368 2.512 4.243 4.858 5.013.765.251 1.554.374 2.338.374 1.621 0 3.222-.525 4.546-1.534l37.88-28.863 37.881 28.862c1.324 1.009 2.924 1.534 4.546 1.534.784 0 1.573-.123 2.338-.374 2.346-.77 4.163-2.645 4.858-5.013l12.705-43.272 22.549 6.044c18.767 5.03 31.874 22.112 31.874 41.542v16.377h-38.539v-12.703c0-4.143-3.358-7.5-7.5-7.5s-7.5 3.357-7.5 7.5v12.703h-126.423v-12.703c0-4.143-3.358-7.5-7.5-7.5s-7.5 3.357-7.5 7.5v12.703h-38.539z"/></symbol>
<symbol id="up-arrow-circle" viewBox="0 0 512 512"><title>up-arrow-circle</title><g> <circle style="fill:#D81A1D;" cx="256" cy="256" r="236.17"/> <path style="fill:#D81A1D;" d="M256,512C114.853,512,0,397.167,0,256C0,114.853,114.853,0,256,0c141.167,0,256,114.853,256,256 C512,397.167,397.167,512,256,512z M256,39.659C136.705,39.659,39.659,136.705,39.659,256S136.705,472.341,256,472.341 S472.341,375.275,472.341,256C472.341,136.705,375.295,39.659,256,39.659z"/> </g><path style="fill:#FFFFFF;" d="M369.227,311.126c-7.734,7.694-20.226,7.694-27.96,0l-85.069-85.069l-85.069,85.069 c-8.309,7.119-20.841,6.147-27.96-2.161c-6.365-7.416-6.365-18.382,0-25.798l99.148-99.148c7.734-7.694,20.226-7.694,27.96,0 l99.148,99.148C377.06,290.96,376.98,303.452,369.227,311.126z"/></symbol>
<symbol id="facebook" viewBox="-110 1 511 511.99996"><title>facebook</title><path d="m180 512h-81.992188c-13.695312 0-24.835937-11.140625-24.835937-24.835938v-184.9375h-47.835937c-13.695313 0-24.835938-11.144531-24.835938-24.835937v-79.246094c0-13.695312 11.140625-24.835937 24.835938-24.835937h47.835937v-39.683594c0-39.347656 12.355469-72.824219 35.726563-96.804688 23.476562-24.089843 56.285156-36.820312 94.878906-36.820312l62.53125.101562c13.671875.023438 24.792968 11.164063 24.792968 24.835938v73.578125c0 13.695313-11.136718 24.835937-24.828124 24.835937l-42.101563.015626c-12.839844 0-16.109375 2.574218-16.808594 3.363281-1.152343 1.308593-2.523437 5.007812-2.523437 15.222656v31.351563h58.269531c4.386719 0 8.636719 1.082031 12.289063 3.121093 7.878906 4.402344 12.777343 12.726563 12.777343 21.722657l-.03125 79.246093c0 13.6875-11.140625 24.828125-24.835937 24.828125h-58.46875v184.941406c0 13.695313-11.144532 24.835938-24.839844 24.835938zm-76.8125-30.015625h71.632812v-193.195313c0-9.144531 7.441407-16.582031 16.582032-16.582031h66.726562l.027344-68.882812h-66.757812c-9.140626 0-16.578126-7.4375-16.578126-16.582031v-44.789063c0-11.726563 1.191407-25.0625 10.042969-35.085937 10.695313-12.117188 27.550781-13.515626 39.300781-13.515626l36.921876-.015624v-63.226563l-57.332032-.09375c-62.023437 0-100.566406 39.703125-100.566406 103.609375v53.117188c0 9.140624-7.4375 16.582031-16.578125 16.582031h-56.09375v68.882812h56.09375c9.140625 0 16.578125 7.4375 16.578125 16.582031zm163.0625-451.867187h.003906zm0 0"/></symbol><symbol id="twitter" viewBox="0 -45 512.00013 512"><title>twitter</title><path d="m194.816406 422.710938c-85.453125 0-152.992187-14.929688-185.304687-40.953126l-.628907-.507812-.570312-.570312c-7.675781-7.679688-10.191406-17.753907-6.894531-27.636719l.300781-.820313c4-10.003906 13.800781-16.738281 24.421875-16.800781 21.859375-.378906 40.984375-2.984375 58.339844-8.042969-27.683594-12.875-46.914063-35.167968-58.355469-67.433594-3.847656-10.0625-.527344-21.21875 8.339844-27.871093 2.1875-1.644531 4.660156-2.886719 7.277344-3.71875-15.382813-17.757813-26.746094-37.964844-33.109376-59.335938l-.199218-.664062-.136719-.679688c-2.160156-10.808593 2.671875-21.921875 11.527344-26.707031 3.714843-2.132812 7.75-3.238281 11.800781-3.332031-4.367188-9.40625-7.542969-19.0625-9.425781-28.777344-5.226563-26.921875-.914063-53.910156 12.8125-80.214844l3.175781-6.351562c2.542969-5.082031 7.402344-8.652344 13.003906-9.5625 5.601563-.90625 11.34375.945312 15.355469 4.957031l5.785156 5.792969c45.703125 47.914062 86.640625 70.648437 157.417969 86.203125 3.160156-27.167969 14.90625-52.421875 33.855469-72.296875 22.550781-23.648438 52.664062-36.917969 84.792969-37.371094h.210937c23.441406 0 52.519531 13.382813 70.105469 22.820313 15.085937-4.9375 33.261718-12.582032 52.121094-20.664063 8.824218-4.140625 19.703124-2.2460938 26.640624 4.691406 6.800782 6.800781 8.6875 16.390625 5.078126 25.710938-1.371094 3.816406-2.925782 7.5625-4.65625 11.226562 2.582031 1.183594 4.945312 2.789063 6.941406 4.785157 6.035156 6.035156 8.550781 15.480468 6.40625 24.066406l-.230469.816406c-7.226563 23.289062-21.109375 42.257812-39.46875 54.164062-3.066406 163.285157-126.027344 295.078126-276.730469 295.078126zm-156.511718-57.675782c30.449218 17.226563 88.476562 27.648438 156.511718 27.648438 65.410156 0 127.136719-28.082032 173.804688-79.074219 47.050781-51.410156 72.960937-119.679687 72.960937-192.234375v-.816406c0-6.570313 3.617188-12.566406 9.4375-15.652344 11.808594-6.253906 21.371094-16.90625 27.589844-30.527344-6.414063 1.011719-12.933594-1.5625-16.929687-6.929687-4.644532-6.238281-4.695313-14.664063-.128907-20.957031 2.464844-3.398438 4.699219-6.933594 6.691407-10.589844-16.285157 6.839844-31.75 12.972656-45.175782 17.046875-4.878906 1.476562-10.316406.898437-14.773437-1.589844-23.902344-13.316406-46.164063-21.277344-59.585938-21.316406-49.527343.757812-89.796875 43.175781-89.796875 94.605469 0 5.316406-2.359375 10.300781-6.464844 13.679687-4.109374 3.375-9.453124 4.726563-14.671874 3.695313-81.609376-16.078126-129.96875-40.1875-180.257813-90.722657-7.207031 17.269531-9.175781 34.664063-5.84375 51.839844 3.378906 17.398437 12.367187 34.832031 25.996094 50.414063 5.179687 5.914062 5.867187 14.375 1.710937 21.050781-4.140625 6.652343-12.011718 9.761719-19.578125 7.734375-5.914062-1.585938-11.351562-3.667969-16.507812-6.34375 10.503906 22.816406 28.570312 43.917968 51.28125 59.480468 6.582031 4.511719 9.332031 12.921876 6.691406 20.453126-2.644531 7.542968-10.03125 12.398437-18.015625 11.804687-8.699219-.644531-16.40625-2.296875-23.5-5.082031 12.734375 25.933594 33.082031 40.203125 64.429688 45.65625 7.464843 1.300781 13.277343 7.195312 14.464843 14.667968 1.191407 7.472657-2.507812 14.878907-9.199219 18.429688-26.71875 14.164062-55.921874 21.765625-91.140624 23.628906zm0 0"/></symbol><symbol id="email" viewBox="0 -100 512.00002 512"><title>email</title><path d="m494.535156 0h-477.070312c-9.628906 0-17.464844 7.835938-17.464844 17.464844v276.453125c0 9.628906 7.835938 17.460937 17.464844 17.460937h477.070312c9.628906 0 17.464844-7.832031 17.464844-17.460937v-276.453125c0-9.628906-7.835938-17.464844-17.464844-17.464844zm-464.503906 43.027344 143.507812 95.382812-143.507812 124.921875zm225.96875 114.128906-191.265625-127.125h382.53125zm-56.523438-1.511719 46.855469 31.144531c2.9375 1.953126 6.300781 2.929688 9.667969 2.929688 3.363281 0 6.730469-.980469 9.667969-2.929688l46.855469-31.144531 144.402343 125.703125h-401.851562zm138.984376-17.238281 143.507812-95.382812v220.308593zm0 0"/></symbol><symbol id="youtube" viewBox="0 -62 512.00199 512"><title>youtube</title><path d="m334.808594 170.992188-113.113282-61.890626c-6.503906-3.558593-14.191406-3.425781-20.566406.351563-6.378906 3.78125-10.183594 10.460937-10.183594 17.875v122.71875c0 7.378906 3.78125 14.046875 10.117188 17.832031 3.308594 1.976563 6.976562 2.96875 10.652344 2.96875 3.367187 0 6.742187-.832031 9.847656-2.503906l113.117188-60.824219c6.714843-3.613281 10.90625-10.59375 10.9375-18.222656.027343-7.628906-4.113282-14.640625-10.808594-18.304687zm-113.859375 63.617187v-91.71875l84.539062 46.257813zm0 0"/><path d="m508.234375 91.527344-.023437-.234375c-.433594-4.121094-4.75-40.777344-22.570313-59.421875-20.597656-21.929688-43.949219-24.59375-55.179687-25.871094-.929688-.105469-1.78125-.203125-2.542969-.304688l-.894531-.09375c-67.6875-4.921874-169.910157-5.5937495-170.933594-5.59765575l-.089844-.00390625-.089844.00390625c-1.023437.00390625-103.246094.67578175-171.542968 5.59765575l-.902344.09375c-.726563.097657-1.527344.1875-2.398438.289063-11.101562 1.28125-34.203125 3.949219-54.859375 26.671875-16.972656 18.445312-21.878906 54.316406-22.382812 58.347656l-.058594.523438c-.152344 1.714844-3.765625 42.539062-3.765625 83.523437v38.3125c0 40.984375 3.613281 81.808594 3.765625 83.527344l.027344.257813c.433593 4.054687 4.746093 40.039062 22.484375 58.691406 19.367187 21.195312 43.855468 24 57.027344 25.507812 2.082031.238282 3.875.441406 5.097656.65625l1.183594.164063c39.082031 3.71875 161.617187 5.550781 166.8125 5.625l.15625.003906.15625-.003906c1.023437-.003907 103.242187-.675781 170.929687-5.597657l.894531-.09375c.855469-.113281 1.816406-.214843 2.871094-.324218 11.039062-1.171875 34.015625-3.605469 54.386719-26.019532 16.972656-18.449218 21.882812-54.320312 22.382812-58.347656l.058594-.523437c.152344-1.71875 3.769531-42.539063 3.769531-83.523438v-38.3125c-.003906-40.984375-3.617187-81.804687-3.769531-83.523437zm-26.238281 121.835937c0 37.933594-3.3125 77-3.625 80.585938-1.273438 9.878906-6.449219 32.574219-14.71875 41.5625-12.75 14.027343-25.847656 15.417969-35.410156 16.429687-1.15625.121094-2.226563.238282-3.195313.359375-65.46875 4.734375-163.832031 5.460938-168.363281 5.488281-5.082032-.074218-125.824219-1.921874-163.714844-5.441406-1.941406-.316406-4.039062-.558594-6.25-.808594-11.214844-1.285156-26.566406-3.042968-38.371094-16.027343l-.277344-.296875c-8.125-8.464844-13.152343-29.6875-14.429687-41.148438-.238281-2.710937-3.636719-42.238281-3.636719-80.703125v-38.3125c0-37.890625 3.304688-76.914062 3.625-80.574219 1.519532-11.636718 6.792969-32.957031 14.71875-41.574218 13.140625-14.453125 26.996094-16.054688 36.160156-17.113282.875-.101562 1.691407-.195312 2.445313-.292968 66.421875-4.757813 165.492187-5.464844 169.046875-5.492188 3.554688.023438 102.589844.734375 168.421875 5.492188.808594.101562 1.691406.203125 2.640625.3125 9.425781 1.074218 23.671875 2.699218 36.746094 16.644531l.121094.128906c8.125 8.464844 13.152343 30.058594 14.429687 41.75.226563 2.558594 3.636719 42.171875 3.636719 80.71875zm0 0"/></symbol>
<symbol id="up-arrow" viewBox="0 0 512.005 512.005"><title>up-arrow</title><path d="M466.22,205.787L263.553,3.12c-4.16-4.16-10.923-4.16-15.083,0L45.804,205.787c-21.803,21.803-21.803,57.28,0,79.083 s57.28,21.803,79.083,0l77.781-77.781v251.584c0,29.397,23.936,53.333,53.333,53.333s53.333-23.936,53.333-53.333V207.088 l77.781,77.781c21.803,21.803,57.28,21.803,79.083,0C488.001,263.088,488.001,227.589,466.22,205.787z" /></symbol>
<symbol id="planing" viewBox="0 0 64 64"><title>planing</title><path d="m45 27.586-1.293-1.293-1.414 1.414 2 2a1 1 0 0 0 1.414 0l4-4-1.414-1.414z"/><path d="m45 35.586-1.293-1.293-1.414 1.414 2 2a1 1 0 0 0 1.414 0l4-4-1.414-1.414z"/><path d="m45 44.586-1.293-1.293-1.414 1.414 2 2a1 1 0 0 0 1.414 0l4-4-1.414-1.414z"/><path d="m57 21h-7v-10a3.009 3.009 0 0 0 -3-3h-10v-1a3.009 3.009 0 0 0 -3-3h-2v-1a1 1 0 0 0 -1-1h-8a1 1 0 0 0 -1 1v1h-2a3.009 3.009 0 0 0 -3 3v1h-10a3.009 3.009 0 0 0 -3 3v48a3.009 3.009 0 0 0 3 3h40a3.009 3.009 0 0 0 3-3v-8h7a3.009 3.009 0 0 0 3-3v-24a3.009 3.009 0 0 0 -3-3zm-25-15h2a1 1 0 0 1 1 1v1h-3zm0 4h15a1 1 0 0 1 1 1v10h-1v-9a1 1 0 0 0 -1-1h-14zm-8-6h6v8a1 1 0 0 1 -1 1h-4a1 1 0 0 1 -1-1zm-1.82 9a3.01 3.01 0 0 0 2.82 2h4a3.01 3.01 0 0 0 2.82-2h13.18v8h-4a3.009 3.009 0 0 0 -3 3v24a3.009 3.009 0 0 0 3 3h4v6h-36v-44zm-3.18-6a1 1 0 0 1 1-1h2v2h-3zm29 52a1 1 0 0 1 -1 1h-40a1 1 0 0 1 -1-1v-48a1 1 0 0 1 1-1h15v1h-14a1 1 0 0 0 -1 1v46a1 1 0 0 0 1 1h38a1 1 0 0 0 1-1v-7h1zm10-11a1 1 0 0 1 -1 1h-16a1 1 0 0 1 -1-1v-24a1 1 0 0 1 1-1h16a1 1 0 0 1 1 1z"/><path d="m50 27h6v2h-6z"/><path d="m50 35h6v2h-6z"/><path d="m50 44h6v2h-6z"/><path d="m26 23h6a1 1 0 0 0 1-1v-1h3v-2h-3v-1a1 1 0 0 0 -1-1h-6a1 1 0 0 0 -1 1v1h-6v-1a1 1 0 0 0 -1-1h-6a1 1 0 0 0 -1 1v4a1 1 0 0 0 1 1h2v4h-2a1 1 0 0 0 -1 1v4a1 1 0 0 0 1 1h2v4h-2a1 1 0 0 0 -1 1v4a1 1 0 0 0 1 1h2v4h-2a1 1 0 0 0 -1 1v4a1 1 0 0 0 1 1h6a1 1 0 0 0 1-1v-1h6v1a1 1 0 0 0 1 1h6a1 1 0 0 0 1-1v-1h3v-2h-3v-1a1 1 0 0 0 -1-1h-6a1 1 0 0 0 -1 1v1h-6v-1a1 1 0 0 0 -1-1h-2v-4h2a1 1 0 0 0 1-1v-4a1 1 0 0 0 -1-1h-2v-4h2a1 1 0 0 0 1-1v-1h6v1a1 1 0 0 0 1 1h2v4h-2a1 1 0 0 0 -1 1v4a1 1 0 0 0 1 1h6a1 1 0 0 0 1-1v-1h3v-2h-3v-1a1 1 0 0 0 -1-1h-2v-4h2a1 1 0 0 0 1-1v-1h3v-2h-3v-1a1 1 0 0 0 -1-1h-6a1 1 0 0 0 -1 1v1h-6v-1a1 1 0 0 0 -1-1h-2v-4h2a1 1 0 0 0 1-1v-1h6v1a1 1 0 0 0 1 1zm1-4h4v2h-4zm0 30h4v2h-4zm4-10v2h-4v-2zm-4-10h4v2h-4zm-10 20v2h-4v-2zm0-10v2h-4v-2zm0-10v2h-4v-2zm0-8h-4v-2h4z"/></symbol><symbol id="marketing" viewBox="0 0 64 64"><title>marketing</title><path d="m39 39h-14v-2c0-2.209 1.791-4 4-4h6c2.209 0 4 1.791 4 4z" fill="#f4b2b0"/><path d="m32 33c-1.657 0-3-1.343-3-3v-2c0-1.657 1.343-3 3-3 1.657 0 3 1.343 3 3v2c0 1.657-1.343 3-3 3z" fill="#f4b2b0"/><g fill="#b3404a"><path d="m32 20c-6.617 0-12 5.383-12 12s5.383 12 12 12 12-5.383 12-12-5.383-12-12-12zm-2 10v-2c0-1.103.897-2 2-2s2 .897 2 2v2c0 1.103-.897 2-2 2s-2-.897-2-2zm5 4c1.654 0 3 1.346 3 3v1h-12v-1c0-1.654 1.346-3 3-3zm-8.974 6h11.948c-1.669 1.25-3.733 2-5.974 2s-4.305-.75-5.974-2zm13.974-2.026v-.974c0-2.613-2.022-4.74-4.579-4.957.359-.6.579-1.294.579-2.043v-2c0-2.206-1.794-4-4-4s-4 1.794-4 4v2c0 .749.22 1.443.579 2.043-2.557.217-4.579 2.344-4.579 4.957v.974c-1.25-1.669-2-3.733-2-5.974 0-5.514 4.486-10 10-10s10 4.486 10 10c0 2.241-.75 4.305-2 5.974z"/><path d="m54 23c-.138 0-.272.015-.408.021l-3.019-5.283c2.645-1.57 4.427-4.446 4.427-7.738 0-4.962-4.037-9-9-9-4.625 0-8.442 3.507-8.941 8h-10.118c-.499-4.493-4.316-8-8.941-8-4.963 0-9 4.038-9 9 0 2.98 1.462 5.619 3.701 7.258l-3.299 5.772c-4.684.31-8.402 4.209-8.402 8.97s3.718 8.66 8.402 8.97l3.298 5.772c-2.238 1.638-3.7 4.277-3.7 7.258 0 4.963 4.037 9 9 9 4.625 0 8.442-3.507 8.941-8h10.118c.499 4.493 4.316 8 8.941 8 4.963 0 9-4.037 9-9 0-3.292-1.782-6.169-4.427-7.738l3.019-5.283c.136.006.27.021.408.021 4.963 0 9-4.037 9-9 0-4.962-4.037-9-9-9zm-3.111-8c-1.263 1.235-2.988 2-4.889 2s-3.627-.765-4.889-2zm-4.889-12c3.859 0 7 3.14 7 7 0 1.075-.251 2.089-.685 3h-1.315v-6h-2v6h-2v-4h-2v4h-2v-2h-2v2h-1.315c-.434-.911-.685-1.925-.685-3 0-3.86 3.141-7 7-7zm-28 0c3.859 0 7 3.14 7 7 0 1.075-.251 2.089-.685 3h-1.315v-6h-2v6h-2v-4h-2v4h-2v-2h-2v2h-1.315c-.434-.911-.685-1.925-.685-3 0-3.86 3.141-7 7-7zm4.889 12c-1.263 1.235-2.988 2-4.889 2s-3.627-.765-4.889-2zm-12.889 10c3.859 0 7 3.14 7 7 0 1.074-.251 2.089-.685 3h-1.315v-6h-2v6h-2v-4h-2v4h-2v-2h-2v2h-1.315c-.434-.911-.685-1.926-.685-3 0-3.86 3.141-7 7-7zm0 14c-1.902 0-3.626-.765-4.889-2h9.779c-1.264 1.235-2.988 2-4.89 2zm3.111 20h9.779c-1.263 1.235-2.988 2-4.889 2s-3.627-.765-4.89-2zm11.204-2h-1.315v-6h-2v6h-2v-4h-2v4h-2v-2h-2v2h-1.315c-.434-.911-.685-1.926-.685-3 0-3.859 3.141-7 7-7s7 3.141 7 7c0 1.074-.251 2.089-.685 3zm16.796 2h9.779c-1.263 1.235-2.988 2-4.889 2s-3.627-.765-4.89-2zm11.889-5c0 1.074-.251 2.089-.685 3h-1.315v-6h-2v6h-2v-4h-2v4h-2v-2h-2v2h-1.315c-.434-.911-.685-1.926-.685-3 0-3.859 3.141-7 7-7s7 3.141 7 7zm-4.255-8.569c-.866-.278-1.788-.431-2.745-.431-4.625 0-8.442 3.507-8.941 8h-10.118c-.499-4.493-4.316-8-8.941-8-1.267 0-2.473.266-3.568.741l-2.798-4.897c4.184-.772 7.366-4.44 7.366-8.844s-3.182-8.072-7.366-8.844l2.798-4.897c1.095.475 2.301.741 3.568.741 4.625 0 8.442-3.507 8.941-8h10.118c.499 4.493 4.316 8 8.941 8 .957 0 1.879-.153 2.745-.431l2.74 4.796c-3.741 1.091-6.485 4.546-6.485 8.635s2.744 7.544 6.485 8.636zm.366-8.431h9.779c-1.263 1.235-2.988 2-4.889 2s-3.627-.765-4.89-2zm11.204-2h-1.315v-6h-2v6h-2v-4h-2v4h-2v-2h-2v2h-1.315c-.434-.911-.685-1.926-.685-3 0-3.86 3.141-7 7-7s7 3.14 7 7c0 1.074-.251 2.089-.685 3z"/></g></symbol>
<symbol id="membership" viewBox="0 0 480 480"><title>id</title><g> <g> <path d="M212.001,32c-13.255,0-24,10.745-24,24c0.014,13.249,10.751,23.986,24,24c13.255,0,24-10.745,24-24S225.256,32,212.001,32 z M212.001,64c-4.418,0-8-3.582-8-8c0.006-4.416,3.584-7.994,8-8c4.418,0,8,3.582,8,8S216.419,64,212.001,64z"/> </g> </g><g> <g> <path d="M340.001,128h-256c-4.418,0-8,3.582-8,8v176c0,4.418,3.582,8,8,8h256c4.418,0,8-3.582,8-8V136 C348.001,131.582,344.419,128,340.001,128z M252.001,304h-80v-40.781c0.013-12.818,10.401-23.206,23.219-23.219h33.563 c12.818,0.013,23.206,10.401,23.219,23.219V304z M188.001,200c0-13.255,10.745-24,24-24s24,10.745,24,24 c-0.014,13.249-10.751,23.986-24,24C198.746,224,188.001,213.255,188.001,200z M332.001,304h-64v-40.781 c-0.052-16.579-10.541-31.329-26.184-36.821c14.727-16.467,13.316-41.755-3.151-56.482c-16.467-14.727-41.755-13.316-56.482,3.151 c-13.579,15.184-13.579,38.147,0,53.331c-15.643,5.493-26.131,20.242-26.183,36.821V304h-64V144h240V304z"/> </g> </g><g> <g> <rect x="76.001" y="336" width="120" height="16"/> </g> </g><g> <g> <rect x="212.001" y="336" width="48" height="16"/> </g> </g><g> <g> <rect x="76.001" y="384" width="192" height="16"/> </g> </g><g> <g> <rect x="276.001" y="336" width="32" height="16"/> </g> </g><g> <g> <path d="M449.657,330.344l-24-24c-3.121-3.124-8.183-3.126-11.307-0.005c-0.211,0.211-0.409,0.433-0.595,0.665l-17.754,22.191V56 c0-4.418-3.582-8-8-8H268.95l6.926-38.586c0.781-4.349-2.112-8.508-6.462-9.288C268.948,0.042,268.475,0,268.001,0h-112 C151.582,0,148,3.582,148,8.001c0,0.474,0.042,0.947,0.126,1.413L155.052,48H36.001c-4.418,0-8,3.582-8,8v416c0,4.418,3.582,8,8,8 h352c4.418,0,8-3.582,8-8v-66.889l54.105-63.943C452.794,337.992,452.598,333.286,449.657,330.344z M258.438,16l-14.359,80 h-64.156l-14.359-80H258.438z M380.001,464h-336V64h113.922l7.433,41.414c0.684,3.813,4.002,6.587,7.875,6.586h77.539 c3.874,0.001,7.191-2.773,7.875-6.586L266.078,64h113.922v285.195l-24.664,30.829l-17.68-17.68 c-3.122-3.124-8.186-3.125-11.309-0.003c-0.001,0.001-0.002,0.002-0.003,0.003l-24,24c-3.124,3.122-3.125,8.186-0.003,11.309 c0.001,0.001,0.002,0.002,0.003,0.003l48,48c1.5,1.501,3.535,2.344,5.656,2.344l0.332-0.008c2.234-0.093,4.328-1.117,5.773-2.824 l17.895-21.148V464z M355.509,428.195L319.313,392l12.688-12.688l18.344,18.344c1.615,1.599,3.828,2.445,6.098,2.332 c2.273-0.126,4.384-1.214,5.805-2.992l58.418-73.02l12.473,12.477L355.509,428.195z"/> </g> </g><g> <g> <rect x="76.001" y="432" width="72" height="16"/> </g> </g><g> <g> <rect x="164.001" y="432" width="128" height="16"/> </g> </g></symbol>
<symbol id="caret-arrow-up" viewBox="0 0 292.362 292.361"><title>caret-arrow-up</title><path d="M286.935,197.287L159.028,69.381c-3.613-3.617-7.895-5.424-12.847-5.424s-9.233,1.807-12.85,5.424L5.424,197.287 C1.807,200.904,0,205.186,0,210.134s1.807,9.233,5.424,12.847c3.621,3.617,7.902,5.425,12.85,5.425h255.813 c4.949,0,9.233-1.808,12.848-5.425c3.613-3.613,5.427-7.898,5.427-12.847S290.548,200.904,286.935,197.287z"/></symbol>
<symbol id="collaboration" viewBox="0 0 480 480"><title>collaboration</title><g> <g> <path d="M240,0c-26.51,0-48,21.49-48,48s21.49,48,48,48c26.499-0.026,47.974-21.501,48-48C288,21.49,266.51,0,240,0z M240,80 c-17.673,0-32-14.327-32-32s14.327-32,32-32c17.673,0,32,14.327,32,32S257.673,80,240,80z"/> </g> </g><g> <g> <path d="M272,104h-1.888l-1.688,0.84c-17.901,8.913-38.947,8.913-56.848,0l-1.688-0.84H208c-22.08,0.026-39.974,17.92-40,40v48 c0,13.255,10.745,24,24,24h96c13.255,0,24-10.745,24-24v-48C311.974,121.92,294.08,104.026,272,104z M296,192c0,4.418-3.582,8-8,8 h-96c-4.418,0-8-3.582-8-8v-48c0.002-12.592,9.735-23.042,22.296-23.936c21.375,9.92,46.034,9.92,67.408,0 c12.56,0.894,22.294,11.344,22.296,23.936V192z"/> </g> </g><g> <g> <path d="M408,264c-26.51,0-48,21.49-48,48c0,26.51,21.49,48,48,48c26.51,0,48-21.49,48-48 C455.974,285.501,434.499,264.026,408,264z M408,344c-17.673,0-32-14.327-32-32c0-17.673,14.327-32,32-32 c17.673,0,32,14.327,32,32C440,329.673,425.673,344,408,344z"/> </g> </g><g> <g> <path d="M440,368h-1.888l-1.688,0.8c-17.901,8.912-38.947,8.912-56.848,0l-1.688-0.8H376c-22.08,0.026-39.974,17.92-40,40v48 c0,13.255,10.745,24,24,24h96c13.255,0,24-10.745,24-24v-48C479.974,385.92,462.08,368.026,440,368z M464,456c0,4.418-3.582,8-8,8 h-96c-4.418,0-8-3.582-8-8v-48c0.002-12.592,9.735-23.042,22.296-23.936c21.375,9.92,46.033,9.92,67.408,0 C454.265,384.958,463.998,395.408,464,408V456z"/> </g> </g><g> <g> <path d="M72,264c-26.51,0-48,21.49-48,48c0,26.51,21.49,48,48,48s48-21.49,48-48C119.974,285.501,98.499,264.026,72,264z M72,344 c-17.673,0-32-14.327-32-32c0-17.673,14.327-32,32-32s32,14.327,32,32C104,329.673,89.673,344,72,344z"/> </g> </g><g> <g> <path d="M104,368h-1.888l-1.688,0.8c-17.901,8.912-38.947,8.912-56.848,0l-1.688-0.8H40c-22.08,0.026-39.974,17.92-40,40v48 c0,13.255,10.745,24,24,24h96c13.255,0,24-10.745,24-24v-48C143.974,385.92,126.08,368.026,104,368z M128,456c0,4.418-3.582,8-8,8 H24c-4.418,0-8-3.582-8-8v-48c0.002-12.592,9.735-23.042,22.296-23.936c21.375,9.92,46.033,9.92,67.408,0 C118.265,384.958,127.998,395.408,128,408V456z"/> </g> </g><g> <g> <path d="M319.372,406.276c-0.004-0.009-0.008-0.018-0.012-0.028c-1.732-4.065-6.431-5.956-10.495-4.224c0,0,0,0,0,0 c-36.125,15.14-76.245,17.902-114.104,7.856l7.488-2.2c4.242-1.242,6.674-5.686,5.432-9.928s-5.686-6.674-9.928-5.432l-32,9.384 c-0.12,0-0.208,0.136-0.32,0.176c-0.741,0.276-1.437,0.662-2.064,1.144c-0.278,0.15-0.545,0.318-0.8,0.504 c-0.844,0.753-1.513,1.681-1.96,2.72c-0.434,1.046-0.641,2.172-0.608,3.304c0.195,1.083,0.462,2.152,0.8,3.2 c0.048,0.112,0,0.24,0.088,0.352l16,30.616c2.046,3.919,6.881,5.438,10.8,3.392s5.438-6.881,3.392-10.8l-6.512-12.448 c43.014,12.93,89.195,10.417,130.552-7.104C319.189,415.039,321.093,410.345,319.372,406.276z"/> </g> </g><g> <g> <path d="M453.656,210.344c-3.124-3.123-8.188-3.123-11.312,0l-11.32,11.32c-6.624-70.07-51.111-130.876-115.888-158.4 c-4.065-1.732-8.764,0.159-10.496,4.224c-1.732,4.065,0.159,8.764,4.224,10.496c58.11,24.697,98.504,78.669,105.816,141.384 l-9.024-9.024c-3.178-3.07-8.242-2.982-11.312,0.196c-2.994,3.1-2.994,8.015,0,11.116l24,24c3.12,3.128,8.186,3.135,11.314,0.014 c0.005-0.005,0.01-0.01,0.014-0.014l24-24C456.791,218.528,456.784,213.464,453.656,210.344z"/> </g> </g><g> <g> <path d="M175.768,69.272c-0.026-0.467-0.095-0.93-0.208-1.384c0-0.072-0.088-0.12-0.12-0.2c-0.032-0.08,0-0.136,0-0.2 c-0.218-0.389-0.47-0.759-0.752-1.104c-0.259-0.469-0.565-0.911-0.912-1.32c-0.473-0.419-0.997-0.776-1.56-1.064 c-0.281-0.239-0.581-0.456-0.896-0.648l-32-14.616c-4.087-1.678-8.761,0.275-10.439,4.362c-1.587,3.865,0.068,8.301,3.799,10.182 l16.568,7.576C86.875,104.237,47.955,169.256,48,240c0,4.418,3.582,8,8,8s8-3.582,8-8c-0.04-62.293,32.901-119.952,86.584-151.552 l-5.784,12.088c-1.907,3.977-0.236,8.747,3.736,10.664c1.079,0.527,2.263,0.801,3.464,0.8c3.072-0.004,5.87-1.767,7.2-4.536 l16-33.384c0-0.08,0-0.168,0.064-0.248c0.208-0.547,0.353-1.116,0.432-1.696c0.137-0.431,0.239-0.872,0.304-1.32 C175.973,70.295,175.896,69.778,175.768,69.272z"/> </g> </g></symbol>
<symbol id="growth" viewBox="0 0 512 512"><title>growth</title><g> <g> <path d="M304,304H104c-2.122,0-4.156,0.844-5.656,2.344l-96,96l11.312,11.312L107.312,320H295.2c-1.664,9.496-6.888,24-23.2,24 h-88v16h88c31.64,0,40-31.4,40-48C312,307.582,308.418,304,304,304z"/> </g> </g><g> <g> <path d="M405.656,250.336c-3.124-3.123-8.188-3.123-11.312,0l-72,72l11.312,11.312l65.712-65.704 c10.832,14.369,8.632,34.682-5.024,46.4L300.688,408H136c-2.122,0-4.156,0.844-5.656,2.344l-56,56l11.312,11.312L139.312,424H304 c2.123-0.003,4.157-0.849,5.656-2.352l96-96C435.448,295.864,418.68,263.36,405.656,250.336z"/> </g> </g><g> <g> <path d="M256,0C114.615,0,0,114.615,0,256h16C16,123.452,123.452,16,256,16s240,107.452,240,240S388.548,496,256,496v16 c141.385,0,256-114.615,256-256S397.385,0,256,0z"/> </g> </g><g> <g> <path d="M336,152h-56v16h36.688l-80,80H200v16h40c2.122,0,4.156-0.844,5.656-2.344L328,179.312V208h16v-48 C344,155.582,340.418,152,336,152z"/> </g> </g><g> <g> <path d="M88,248c-2.122,0-4.156,0.844-5.656,2.344l-24,24l11.312,11.312L91.312,264H152v-16H88z"/> </g> </g><g> <g> <rect x="168" y="248" width="16" height="16"/> </g> </g><g> <g> <path d="M64.776,182.456l15.264,4.8C102.88,113.741,171.019,63.738,248,64V48C164.026,47.72,89.697,102.264,64.776,182.456z"/> </g> </g></symbol><symbol id="growth-1" viewBox="0 0 512 512"><title>growth-1</title><circle style="fill:#273B7A;" cx="256" cy="256" r="256"/><circle style="fill:#324A5E;" cx="256" cy="256" r="256"/><path style="fill:#2B3B4E;" d="M511.652,269.405l-161.228-161.23l-158.844,86.85l-31.928,36.123l78.867,78.867l-38.833,2.874 l-93.131,106.927l83.627,83.627C211.185,509.014,233.243,512,256,512C392.888,512,504.68,404.559,511.652,269.405z"/><path style="fill:#F4E3C3;" d="M401.606,290.287c-3.303-4.591-9.307-6.397-14.601-4.41c-0.076,0.029-0.152,0.055-0.228,0.081 l-89.619,29.836c0.019,0.721,0.005,1.445-0.043,2.174c-0.748,11.445-9.599,20.639-20.971,21.792l-54.01,5.61 c-3.417,0.357-6.472-2.126-6.827-5.541c-0.357-3.417,2.126-6.551,5.541-6.827l54.01-5.61c5.33-0.581,9.495-4.86,9.847-10.235 c0.191-2.934-0.772-5.766-2.712-7.975c-1.939-2.21-4.624-3.532-7.558-3.724l-71.711-4.675c-8.054-0.522-16.05,1.255-23.121,5.148 L85.028,358.01l25.612,51.645l23.757-20.725c10.09-8.801,23.455-12.593,36.667-10.397l79.41,13.197 c14.551,1.934,29.139-1.695,41.088-10.218l108.118-74.461C404.513,302.83,405.371,295.517,401.606,290.287z"/><g> <path style="fill:#FED8B2;" d="M274.856,327.394c5.33-0.581,9.495-4.86,9.847-10.235c0.191-2.934-0.772-5.766-2.712-7.975 c-1.939-2.21-4.624-3.532-7.558-3.724l-15.948-1.04v24.673L274.856,327.394z"/> <path style="fill:#FED8B2;" d="M401.606,290.287c-3.303-4.591-9.307-6.397-14.601-4.41c-0.076,0.029-0.152,0.055-0.228,0.081 l-89.619,29.836c0.019,0.721,0.005,1.445-0.043,2.174c-0.748,11.445-9.599,20.639-20.971,21.792l-17.653,1.834v50.641 c11.812-0.072,23.323-3.765,33.073-10.721l108.118-74.459C404.513,302.83,405.371,295.517,401.606,290.287z"/> </g><polygon style="fill:#D35933;" points="66.079,355.147 98.619,332.903 139.099,397.572 106.556,419.816 "/><polygon style="fill:#B54324;" points="139.099,397.572 118.574,364.784 86.176,387.256 106.556,419.816 "/><path style="fill:#F9B54C;" d="M339.49,104.008H172.51c-9.111,0-16.496,7.385-16.496,16.496v100.323 c0,9.111,7.385,16.496,16.496,16.496h59.93L256,284.444l23.561-47.12h59.93c9.111,0,16.496-7.385,16.496-16.496V120.506 C355.987,111.395,348.601,104.008,339.49,104.008z"/><path style="fill:#F4A200;" d="M339.49,104.008h-83.634v180.15l0.143,0.286l23.561-47.12h59.93c9.111,0,16.496-7.385,16.496-16.496 V120.506C355.987,111.395,348.601,104.008,339.49,104.008z"/><path style="fill:#D83E20;" d="M319.622,137.837c-0.3-4.274-4.037-7.477-8.28-7.197l-28.375,1.982 c-4.274,0.3-7.497,4.006-7.199,8.28s3.994,7.465,8.28,7.199l10.311-0.721l-39.114,40.653l-22.852-22.852 c-3.027-3.031-7.942-3.031-10.969,0l-28.444,28.444c-3.031,3.029-3.031,7.94,0,10.969c3.027,3.031,7.942,3.031,10.969,0 l22.959-22.957l22.959,22.957c1.455,1.457,3.427,2.272,5.485,2.272c0.026,0,0.05,0,0.074,0c2.084-0.021,4.072-0.877,5.516-2.379 l44.549-46.302l0.636,9.107c0.286,4.089,3.694,7.216,7.73,7.216c0.181,0,0.365-0.007,0.55-0.019c4.274-0.3,7.496-4.006,7.197-8.282 L319.622,137.837z"/><path style="fill:#C1321F;" d="M319.622,137.837c-0.3-4.274-4.037-7.477-8.28-7.197l-28.375,1.982 c-4.274,0.3-7.497,4.006-7.199,8.28s3.994,7.465,8.28,7.199l10.311-0.721l-38.502,40.019v19.423 c1.924-0.126,3.744-0.934,5.087-2.332l44.549-46.302l0.636,9.107c0.286,4.089,3.694,7.216,7.73,7.216 c0.181,0,0.365-0.007,0.55-0.019c4.274-0.3,7.496-4.006,7.197-8.282L319.622,137.837z"/></symbol>
<symbol id="add-button-with-plus-symbol-in-a-black-circle" viewBox="0 0 457.47 457.469"><title>add-button-with-plus-symbol-in-a-black-circle</title><path d="M228.734,0C102.41,0,0,102.41,0,228.735C0,355.06,102.41,457.469,228.734,457.469 c126.325,0,228.735-102.409,228.735-228.734C457.47,102.41,355.06,0,228.734,0z M359.268,265.476h-97.326v97.315 c0,16.668-13.506,30.186-30.181,30.186c-16.668,0-30.189-13.518-30.189-30.186v-97.315h-97.309 c-16.674,0-30.192-13.512-30.192-30.187c0-16.674,13.518-30.188,30.192-30.188h97.315v-97.31c0-16.674,13.515-30.183,30.189-30.183 c16.675,0,30.187,13.509,30.187,30.183v97.315h97.314c16.669,0,30.192,13.515,30.192,30.188 C389.46,251.97,375.937,265.476,359.268,265.476z"/></symbol>
<symbol id="pdf" viewBox="0 0 58 58"><title>pdf</title><path d="M50.95,12.187l-0.771-0.771L40.084,1.321L39.313,0.55C38.964,0.201,38.48,0,37.985,0H8.963C7.777,0,6.5,0.916,6.5,2.926V39 v16.537V56c0,0.837,0.842,1.653,1.838,1.91c0.05,0.013,0.098,0.032,0.15,0.042C8.644,57.983,8.803,58,8.963,58h40.074 c0.16,0,0.319-0.017,0.475-0.048c0.052-0.01,0.1-0.029,0.15-0.042C50.658,57.653,51.5,56.837,51.5,56v-0.463V39V13.978 C51.5,13.211,51.408,12.645,50.95,12.187z M47.935,12H39.5V3.565L47.935,12z M8.963,56c-0.071,0-0.135-0.026-0.198-0.049 C8.609,55.877,8.5,55.721,8.5,55.537V41h41v14.537c0,0.184-0.109,0.339-0.265,0.414C49.172,55.974,49.108,56,49.037,56H8.963z M8.5,39V2.926C8.5,2.709,8.533,2,8.963,2h28.595C37.525,2.126,37.5,2.256,37.5,2.391V14h11.609c0.135,0,0.264-0.025,0.39-0.058 c0,0.015,0.001,0.021,0.001,0.036V39H8.5z"/><path d="M22.042,44.744c-0.333-0.273-0.709-0.479-1.128-0.615c-0.419-0.137-0.843-0.205-1.271-0.205h-2.898V54h1.641v-3.637h1.217 c0.528,0,1.012-0.077,1.449-0.232s0.811-0.374,1.121-0.656c0.31-0.282,0.551-0.631,0.725-1.046c0.173-0.415,0.26-0.877,0.26-1.388 c0-0.483-0.103-0.918-0.308-1.306S22.375,45.018,22.042,44.744z M21.42,48.073c-0.101,0.278-0.232,0.494-0.396,0.649 c-0.164,0.155-0.344,0.267-0.54,0.335c-0.196,0.068-0.395,0.103-0.595,0.103h-1.504v-3.992h1.23c0.419,0,0.756,0.066,1.012,0.198 c0.255,0.132,0.453,0.296,0.595,0.492c0.141,0.196,0.234,0.401,0.28,0.615c0.045,0.214,0.068,0.403,0.068,0.567 C21.57,47.451,21.52,47.795,21.42,48.073z"/><path d="M31.954,45.4c-0.424-0.446-0.957-0.805-1.6-1.073s-1.388-0.403-2.235-0.403h-3.035V54h3.814 c0.127,0,0.323-0.016,0.588-0.048c0.264-0.032,0.556-0.104,0.875-0.219c0.319-0.114,0.649-0.285,0.991-0.513 s0.649-0.54,0.923-0.937s0.499-0.889,0.677-1.477s0.267-1.297,0.267-2.126c0-0.602-0.105-1.188-0.314-1.757 C32.694,46.355,32.378,45.847,31.954,45.4z M30.758,51.73c-0.492,0.711-1.294,1.066-2.406,1.066h-1.627v-7.629h0.957 c0.784,0,1.422,0.103,1.914,0.308s0.882,0.474,1.169,0.807s0.48,0.704,0.581,1.114c0.1,0.41,0.15,0.825,0.15,1.244 C31.496,49.989,31.25,51.02,30.758,51.73z"/><polygon points="35.598,54 37.266,54 37.266,49.461 41.477,49.461 41.477,48.34 37.266,48.34 37.266,45.168 41.9,45.168 41.9,43.924 35.598,43.924 "/><path d="M38.428,22.961c-0.919,0-2.047,0.12-3.358,0.358c-1.83-1.942-3.74-4.778-5.088-7.562c1.337-5.629,0.668-6.426,0.373-6.802 c-0.314-0.4-0.757-1.049-1.261-1.049c-0.211,0-0.787,0.096-1.016,0.172c-0.576,0.192-0.886,0.636-1.134,1.215 c-0.707,1.653,0.263,4.471,1.261,6.643c-0.853,3.393-2.284,7.454-3.788,10.75c-3.79,1.736-5.803,3.441-5.985,5.068 c-0.066,0.592,0.074,1.461,1.115,2.242c0.285,0.213,0.619,0.326,0.967,0.326h0c0.875,0,1.759-0.67,2.782-2.107 c0.746-1.048,1.547-2.477,2.383-4.251c2.678-1.171,5.991-2.229,8.828-2.822c1.58,1.517,2.995,2.285,4.211,2.285 c0.896,0,1.664-0.412,2.22-1.191c0.579-0.811,0.711-1.537,0.39-2.16C40.943,23.327,39.994,22.961,38.428,22.961z M20.536,32.634 c-0.468-0.359-0.441-0.601-0.431-0.692c0.062-0.556,0.933-1.543,3.07-2.744C21.555,32.19,20.685,32.587,20.536,32.634z M28.736,9.712c0.043-0.014,1.045,1.101,0.096,3.216C27.406,11.469,28.638,9.745,28.736,9.712z M26.669,25.738 c1.015-2.419,1.959-5.09,2.674-7.564c1.123,2.018,2.472,3.976,3.822,5.544C31.031,24.219,28.759,24.926,26.669,25.738z M39.57,25.259C39.262,25.69,38.594,25.7,38.36,25.7c-0.533,0-0.732-0.317-1.547-0.944c0.672-0.086,1.306-0.108,1.811-0.108 c0.889,0,1.052,0.131,1.175,0.197C39.777,24.916,39.719,25.05,39.57,25.259z"/></symbol>
<symbol id="taxes" viewBox="0 0 64 64"><title>taxes</title><path d="m11
11h3v12h2v-12h3v-2h-8z"/><path d="m25 9a4 4 0 0 0 -4
4v10h2v-4h4v4h2v-10a4 4 0 0 0 -4-4zm-2 8v-4a2 2 0 0 1 4 0v4z"/><path
d="m37 9a8.57 8.57 0 0 1 -2 5.54 7.85 7.85 0 0 1 -2-5.23v-.31h-2v.31a9.82
9.82 0 0 0 2.63 6.69 10.54 10.54 0 0 0 -2.63 7h2a8.57 8.57 0 0 1 2-5.54 7.
85 7.85 0 0 1 2 5.23v.31h2v-.31a9.82 9.82 0 0 0 -2.63-6.69 10.54 10.54 0 0 0 2.63-7z"/><path d="m8 27h34a1 1 0 0 0 1-1v-20a1 1 0 0 0 -1-1h-34a1 1 0 0 0 -1 1v20a1 1 0 0 0 1 1zm1-20h32v18h-32z"/><path d="m8 37h6a1 1 0 0 0 1-1v-6a1 1 0 0 0 -1-1h-6a1 1 0 0 0 -1 1v6a1 1 0 0 0 1 1zm1-6h4v4h-4z"/><path d="m14 49h-6a1 1 0 0 0 -1 1v6a1 1 0 0 0 1 1h6a1 1 0 0 0 1-1v-6a1 1 0 0 0 -1-1zm-1 6h-4v-4h4z"/><path d="m15.29 37.29-1.7 1.71h-5.59a1 1 0 0 0 -1 1v6a1 1 0 0 0 1 1h6a1 1 0 0 0 1-1v-5.59l1.71-1.7zm-3.7 3.71-2.59 2.59v-2.59zm1.41 4h-2.59l2.59-2.59z"/><path d="m17 30h26v2h-26z"/><path d="m17 34h26v2h-26z"/><path d="m49 35v-33a1 1 0 0 0 -1-1h-46a1 1 0 0 0 -1 1v60a1 1 0 0 0 1 1h44a1 1 0 0 0 .6-.22 14.57 14.57 0 0 0 2.4.22 14 14 0 0 0 0-28zm-46 26v-58h44v32.16a14 14 0 0 0 -8.71 4.84h-21.29v2h19.89a14.1 14.1 0 0 0 -1 2h-18.89v2h18.33a14.14 14.14 0 0 0 -.33 3v1h-18v2h18.33a13.6 13.6 0 0 0 .61 2h-18.94v2h19.89a14.09 14.09 0 0 0 4.94 5zm46 0a12 12 0 1 1 12-12 12 12 0 0 1 -12 12z"/><path d="m54 49a3 3 0 1 0 3 3 3 3 0 0 0 -3-3zm0 4a1 1 0 1 1 1-1 1 1 0 0 1 -1 1z"/><path d="m47 46a3 3 0 1 0 -3 3 3 3 0 0 0 3-3zm-3 1a1 1 0 1 1 1-1 1 1 0 0 1 -1 1z"/><path d="m39.15 48h19.7v2h-19.7z" transform="matrix(.406 -.914 .914 .406 -15.68 73.88)"/></symbol><symbol id="law" viewBox="0 0 60 60"><title>law</title><path id="Shape" d="m57 5h-20l-4.15-4.12c-1.1884135-1.12762879-3.0515865-1.12762879-4.24 0l-4.12 4.12h-21.49c-1.65685425 0-3 1.34314575-3 3v39c0 1.6568542 1.34314575 3 3 3h17.66l-2.4 8h-2.26c-.5522847 0-1 .4477153-1 1s.4477153 1 1 1h28c.5522847 0 1-.4477153 1-1s-.4477153-1-1-1h-2.26l-2.4-8h17.66c1.6568542 0 3-1.3431458 3-3v-39c0-1.65685425-1.3431458-3-3-3zm-27-2.71c.1877666-.18931265.4433625-.29579832.71-.29579832s.5222334.10648567.71.29579832l7.07 7.07c.1893127.1877666.2957983.44336246.2957983.71 0 .2666375-.1064856.5222334-.2957983.71l-1.42 1.41-5-4.95c-.3900375-.38772359-1.0199625-.38772359-1.41 0-.1893127.1877666-.2957983.44336246-.2957983.71s.1064856.5222334.2957983.71l4.95 4.95-7.07 7.07-.64-.68c-.3900375-.3877236-1.0199625-.3877236-1.41 0-.3877236.3900375-.3877236 1.0199625 0 1.41l.7.71-1.41 1.42c-.1877666.1893127-.4433625.2957983-.71.2957983s-.5222334-.1064856-.71-.2957983l-7.07-7.08c-.3877236-.3900375-.3877236-1.0199625 0-1.41l1.42-1.41 4.95 4.95c.3900375.3877236 1.0199625.3877236 1.41 0 .1893127-.1877666.2957983-.4433625.2957983-.71s-.1064856-.5222334-.2957983-.71l-4.95-5 7.07-7.07.71.71c.3900375.38772359 1.0199625.38772359 1.41 0 .1893127-.1877666.2957983-.44336246.2957983-.71s-.1064856-.5222334-.2957983-.71l-.7-.7zm5.66 17-1.42 1.42-1.41-1.42 1.41-1.41zm3.53.71 1.42 1.41-4.25 4.25-1.36-1.45c-.3877236-.3900375-.3877236-1.0199625 0-1.41l2.8-2.8c.3900375-.3877236 1.0199625-.3877236 1.41 0zm12.43 12.38c.3877236.3900375.3877236 1.0199625 0 1.41l-2.83 2.83c-.3900375.3877236-1.0199625.3877236-1.41 0l-9.58-9.62 4.2-4.2zm-11.96 25.62h-19.32l2.4-8h14.52zm17.34-10h-54c-.55228475 0-1-.4477153-1-1v-4h4c.55228475 0 1-.4477153 1-1s-.44771525-1-1-1h-4v-33c0-.55228475.44771525-1 1-1h19.49l-6.61 6.61c-1.1698135 1.1712702-1.1698135 3.0687298 0 4.24l7.12 7.07c1.1712702 1.1698135 3.0687298 1.1698135 4.24 0l4.25-4.24 1.51 1.54c-.5473673 1.1449301-.3151142 2.5104186.58 3.41l12.42 12.37c.5629056.5648636 1.3275456.8823657 2.125.8823657s1.5620944-.3175021 2.125-.8823657l2.75-2.79c1.1499786-1.1677424 1.1499786-3.0422576 0-4.21l-12.4-12.4c-.8896097-.8885421-2.2389216-1.1280649-3.38-.6l-1.54-1.54 4.24-4.25c1.1698135-1.1712702 1.1698135-3.06872981 0-4.24l-.92-.97h18c.5522847 0 1 .44771525 1 1v33h-48c-.55228475 0-1 .4477153-1 1s.44771525 1 1 1h48v4c0 .5522847-.4477153 1-1 1z"/><path id="Shape" d="m27 37v-4c0-2.7614237-2.2385763-5-5-5h-10c-2.76142375 0-5 2.2385763-5 5v4c0 .5522847.44771525 1 1 1h18c.5522847 0 1-.4477153 1-1zm-15-7h10c1.2682549.0035644 2.3972517.8042713 2.82 2h-15.64c.4227483-1.1957287 1.5517451-1.9964356 2.82-2zm-3 6v-2h16v2z"/><path id="Shape" d="m6.29 25.71c.39212217.3921222 1.02787783.3921222 1.42 0s.39212217-1.0278778 0-1.42l-2-2c-.39212218-.3921222-1.02787781-.3921221-1.41999998 0-.39212216.3921222-.39212217 1.0278778-.00000002 1.42z"/><path id="Shape" d="m6 27h-2c-.55228475 0-1 .4477153-1 1s.44771525 1 1 1h2c.55228475 0 1-.4477153 1-1s-.44771525-1-1-1z"/><path id="Shape" d="m28 30c.41 0 .28 0 3.55-2.17.4021248-.3239123.4915129-.9007244.206288-1.3311547s-.8512619-.5729246-1.306288-.3288453l-3 2c-.3640258.2445986-.5261957.6978475-.3999631 1.1178578.1262326.4200102.5114066.7087569.9499631.7121422z"/><path id="Shape" d="m31.45 32.11-2-1c-.4835272-.2013504-1.0404963.0045141-1.2768341.4719378s-.0719586 1.0380149.3768341 1.3080622l2 1c.3211808.1932607.7234705.1906728 1.0421383-.0067041.3186678-.1973768.5001928-.5563928.4702434-.9300368s-.2663431-.6991617-.6123817-.8432591z"/></symbol><symbol id="immigrant" viewBox="0 0 512 512"><title>immigrant</title><path d="M451.61261,116.91919C459.842,101.74658,464,89.38306,464,80A63.95973,63.95973,0,0,0,353.135,36.47705,240.05153,240.05153,0,0,0,16,256a238.27832,238.27832,0,0,0,18.69336,92.97437A23.84426,23.84426,0,0,0,32,360v82.707a27.99237,27.99237,0,0,0,18.25964,52.57886A23.97889,23.97889,0,0,0,56,496h96a24.0309,24.0309,0,0,0,21.98792-14.39551,240.04564,240.04564,0,0,0,277.62469-364.6853ZM400,32a48.054,48.054,0,0,1,48,48c0,6.27246-3.44189,21.74805-26.49268,54.92188-8.05322,11.58984-16.18408,21.96679-21.50781,28.54-5.30273-6.54589-13.39209-16.86914-21.43115-28.43066C355.45166,101.78613,352,86.28223,352,80A48.054,48.054,0,0,1,400,32ZM112,304H80v-8h32ZM80,320h32v16H80ZM65.37616,352A23.88535,23.88535,0,0,0,64,360v88.43066a27.94394,27.94394,0,0,0-16-8.14038V360a8.00917,8.00917,0,0,1,8-8ZM32,468a12,12,0,1,1,12,12A12.01343,12.01343,0,0,1,32,468Zm128,4a8.00917,8.00917,0,0,1-8,8H88a8.00917,8.00917,0,0,1-8-8V360a8.00917,8.00917,0,0,1,8-8h64a8.00917,8.00917,0,0,1,8,8Zm254.39209-57.6084c-1.58191,1.582-3.18958,3.12842-4.80994,4.657l-37.42736-10.20776L288,324.68652V252.94434l11.57764-5.78907-7.15528-14.31054-16,8A7.99979,7.99979,0,0,0,272,248v80a8.00076,8.00076,0,0,0,2.34326,5.65723l88,88a7.99692,7.99692,0,0,0,3.55176,2.06054l29.12421,7.94287A224.40375,224.40375,0,0,1,189.58136,469.9812l38.53436-23.12085A8.00091,8.00091,0,0,0,232,440V336a8.00041,8.00041,0,0,0-6.43115-7.84473l-37.625-7.52441-18.791-18.792L173.76611,288H200a8.00005,8.00005,0,0,0,7.76123-6.05957l8-32a8.00091,8.00091,0,0,0-6.62988-9.86035L160,233.06152V208h48a7.99956,7.99956,0,0,0,7.353-4.84863l6.85693-16-14.70605-6.30274L202.72461,192H152a8.00008,8.00008,0,0,0-8,8v40a8.00031,8.00031,0,0,0,6.86865,7.91992L198.0874,254.665,193.75391,272H168a7.99967,7.99967,0,0,0-7.58936,5.46973l-8,24a8.00083,8.00083,0,0,0,1.93262,8.1875l24,24a8.00171,8.00171,0,0,0,4.08789,2.1875L216,342.55859V435.4707l-40,23.99951V360a24.02718,24.02718,0,0,0-24-24H128V288a8.00008,8.00008,0,0,0-8-8H72a8.00008,8.00008,0,0,0-8,8v48H56a23.86791,23.86791,0,0,0-8.65161,1.61987A224.47527,224.47527,0,0,1,160,53.48779V80a8.00076,8.00076,0,0,0,2.34326,5.65723l56,56,11.31348-11.31446L176,76.68652V46.65234A223.93918,223.93918,0,0,1,256,32c5.369,0,10.70081.206,16,.57568V88a8.00091,8.00091,0,0,0,3.2002,6.40039l30.00048,22.5L320,161.29785V200h16V160a8.00643,8.00643,0,0,0-.41064-2.53027l-16-48a8.00519,8.00519,0,0,0-2.78956-3.87012L288,84V34.25757a220.74558,220.74558,0,0,1,55.59546,15.53491A63.59844,63.59844,0,0,0,336,80c0,14.49023,9.90234,36.0791,29.43164,64.165,6.34815,9.12964,12.64594,17.41748,17.70557,23.835H360v16h80V168H416.86279c5.05963-6.41748,11.35742-14.70532,17.70557-23.835q4.3515-6.25782,8.05945-12.08057A224.05052,224.05052,0,0,1,414.39209,414.3916Z"/><rect x="88" y="368" width="16" height="96"/><rect x="112" y="368" width="16" height="96"/><rect x="136" y="368" width="16" height="96"/><path d="M96,216a24,24,0,1,0,24,24A24.02718,24.02718,0,0,0,96,216Zm0,32a8,8,0,1,1,8-8A8.00917,8.00917,0,0,1,96,248Z"/><path d="M138.03613,174.72754l10.27051,12.26953a81.5605,81.5605,0,0,1,12.55811-8.65039L153.061,164.37793A97.73484,97.73484,0,0,0,138.03613,174.72754Z"/><rect x="117.44857" y="191.04661" width="16.77083" height="16.00052" transform="translate(-106.82422 162.65996) rotate(-48.81079)"/><path d="M354.28027,215.26953,356.418,231.127a97.74016,97.74016,0,0,0,17.77295-4.12011l-5.05567-15.17969A81.65916,81.65916,0,0,1,354.28027,215.26953Z"/><path d="M320.14355,229.1875a97.74227,97.74227,0,0,0,18.04444,2.67285l.85351-15.97656a81.69938,81.69938,0,0,1-15.08252-2.23535Z"/><path d="M383.08887,205.67871l7.79394,13.97266a97.69746,97.69746,0,0,0,15.0293-10.33692l-10.26172-12.27539A81.70741,81.70741,0,0,1,383.08887,205.67871Z"/><path d="M287.09766,214.10352a97.75967,97.75967,0,0,0,15.81445,9.09472l6.64453-14.55469a81.80805,81.80805,0,0,1-13.21973-7.60253Z"/><rect x="263.97671" y="183.59591" width="16.00018" height="16.77106" transform="translate(-47.8364 284.43561) rotate(-51.34123)"/><path d="M204.90576,168.11328a81.58886,81.58886,0,0,1,15.085,2.22461l3.80664-15.541a97.6646,97.6646,0,0,0-18.04882-2.66211Z"/><path d="M234.39844,175.33594a81.63285,81.63285,0,0,1,13.22265,7.59179l9.23047-13.06835a97.72694,97.72694,0,0,0-15.81933-9.084Z"/><path d="M169.751,157.01172l5.06347,15.17773a81.66013,81.66013,0,0,1,14.853-3.45117L187.521,152.88281A97.72044,97.72044,0,0,0,169.751,157.01172Z"/><path d="M400,120a40,40,0,1,0-40-40A40.04552,40.04552,0,0,0,400,120Zm0-64a24,24,0,1,1-24,24A24.0275,24.0275,0,0,1,400,56Z"/></symbol><symbol id="translating" viewBox="0 0 512 512"><title>translating</title><path d="M370.931,102.051a8,8,0,0,0-2.895-5.788,174.894,174.894,0,0,0-94.463-39.394c-5.751-.572-11.6-.858-17.445-.863-.043,0-.085-.006-.128-.006s-.084.006-.127.006c-5.848,0-11.695.291-17.442.863a175.225,175.225,0,0,0-129.523,78.464l-.061.089h0a176.044,176.044,0,0,0,11.417,208.614,8,8,0,0,0,5.787,2.9c.127.006.253.008.38.008a8,8,0,0,0,5.656-2.342L368.6,108.087A8,8,0,0,0,370.931,102.051ZM230.056,224H180.944a235.387,235.387,0,0,1,9.92-60.224A507.977,507.977,0,0,0,248,167.928v38.128ZM96.222,224A159.08,159.08,0,0,1,119.1,149.149a505.249,505.249,0,0,0,55.761,12.307A251.43,251.43,0,0,0,164.938,224ZM243.007,72.531c1.659-.134,3.323-.251,4.993-.333v79.73a492.129,492.129,0,0,1-51.872-3.608A233.2,233.2,0,0,1,243.007,72.531ZM214.057,240l-30.149,30.148A237.173,237.173,0,0,1,180.95,240ZM264,167.929q11.5-.183,23.021-.893L264,190.056Zm40.476-18.349c-13.389,1.336-26.957,2.124-40.476,2.346V72.2c1.672.082,3.338.2,5,.333a234.1,234.1,0,0,1,43.993,68.532ZM218.7,76.37a248.394,248.394,0,0,0-38.813,69.673,489.955,489.955,0,0,1-51.261-10.866A159.106,159.106,0,0,1,218.7,76.37ZM127.167,326.89A160.316,160.316,0,0,1,96.209,240h68.729a252.685,252.685,0,0,0,5.261,43.858Zm197.995-198a249.34,249.34,0,0,0-31.87-52.527,158.8,158.8,0,0,1,57.6,26.8Z"/><path d="M403.157,135.429a176.512,176.512,0,0,0-11.42-15.463,8,8,0,0,0-11.824-.563L143.4,355.913a8,8,0,0,0,.561,11.824,174.894,174.894,0,0,0,94.463,39.394A179.213,179.213,0,0,0,272,407.28V448a8,8,0,0,0,13.878,5.426L357.625,375.7a176.04,176.04,0,0,0,45.532-240.272ZM347.729,363.1a8.048,8.048,0,0,0-1.286,1.125L288,427.539v-29.25a8,8,0,0,0-9.132-7.92c-2.422.347-4.672.621-6.881.84a162.556,162.556,0,0,1-31.978,0,158.85,158.85,0,0,1-78.9-30.372L384.834,137.11q2.584,3.5,4.953,7.108A160.04,160.04,0,0,1,347.729,363.1Z"/><circle cx="256" cy="312" r="16"/><circle cx="304" cy="312" r="16"/><circle cx="352" cy="312" r="16"/><path d="M79.992,340.062a8,8,0,0,0-8.93,6.946l-.676,5.4A208.021,208.021,0,0,1,93.63,84.217,8,8,0,1,0,82.37,72.85,224.007,224.007,0,0,0,56.932,361.087l-6.76-1a8,8,0,1,0-2.344,15.828l27,4a8,8,0,0,0,9.11-6.922l3-24A8,8,0,0,0,79.992,340.062Z"/><path d="M454.534,96a8,8,0,0,0,0-16h-24a8,8,0,0,0-8,8v24a8,8,0,0,0,16,0v-2.638A208,208,0,0,1,418.316,378.37a8,8,0,0,0,11.368,11.26A224,224,0,0,0,448.521,96Z"/></symbol><symbol id="intellectual-property" viewBox="0 0 512.029 512.029"><title>intellectual-property</title><path d="M298.681,341.333h-68.267c-4.713,0-8.533,3.82-8.533,8.533s3.821,8.533,8.533,8.533h68.267 c4.713,0,8.533-3.82,8.533-8.533S303.394,341.333,298.681,341.333z"/><path d="M264.548,119.467c4.713,0,8.533-3.82,8.533-8.533V93.867c0-4.713-3.82-8.533-8.533-8.533s-8.533,3.821-8.533,8.533 v17.067C256.015,115.646,259.835,119.467,264.548,119.467z"/><path d="M334.748,149.167c2.945,0.789,6.086-0.053,8.242-2.208l12.067-12.067c2.162-2.154,3.008-5.299,2.22-8.247 c-0.788-2.948-3.091-5.251-6.039-6.039c-2.948-0.788-6.093,0.058-8.247,2.22l-12.067,12.067 c-2.156,2.155-2.997,5.297-2.208,8.242C329.504,146.078,331.803,148.378,334.748,149.167z"/><path d="M460.815,196.267c-4.713,0-8.533,3.82-8.533,8.533h-85.333c-4.713,0-8.533,3.821-8.533,8.533 c0,4.713,3.82,8.533,8.533,8.533h93.867c2.263,0.001,4.434-0.898,6.035-2.499c1.6-1.6,2.499-3.771,2.499-6.035V204.8 C469.348,200.087,465.527,196.267,460.815,196.267z"/><path d="M186.106,146.959c1.598,1.603,3.77,2.503,6.034,2.5c3.451-0.001,6.562-2.08,7.882-5.268 c1.32-3.188,0.591-6.858-1.849-9.298l-12.067-12.067c-3.334-3.322-8.728-3.318-12.056,0.01c-3.328,3.328-3.333,8.722-0.01,12.056 L186.106,146.959z"/><path d="M170.681,213.333c0-4.713-3.821-8.533-8.533-8.533h-76.8c0-4.713-3.82-8.533-8.533-8.533s-8.533,3.82-8.533,8.533v8.533 c-0.001,2.263,0.898,4.434,2.499,6.035c1.6,1.6,3.771,2.499,6.035,2.499h85.333C166.861,221.867,170.681,218.046,170.681,213.333 z"/><path d="M366.607,238.933H336.88c10.494-29.334,2.141-62.102-21.115-82.833c-26.105-23.518-64.855-26.285-94.037-6.715 c-29.182,19.57-41.331,56.47-29.482,89.548H163.54c-8.946,0.027-17.239,4.69-21.908,12.321 c-8.045,11.452-12.759,24.91-13.617,38.879c0.068,8.174,1.424,16.286,4.017,24.037c1.321,3.666,2.121,7.499,2.375,11.388 c-2.979,4.945-6.649,9.439-10.9,13.346c-5.776,5.694-10.989,11.933-15.567,18.629c-6.017,9.974-3.458,22.888,5.908,29.813 l7.892,5.912l-0.7,1.392c-2.702,5.382-1.647,11.889,2.617,16.142l3.133,3.129c-1.937,4.375-1.507,9.436,1.142,13.421l4.558,6.837 c0.93,1.482,0.997,3.347,0.175,4.892c-2.714,5.547-3.127,11.942-1.15,17.792c2.125,5.485,5.97,10.134,10.958,13.25 c7.673,5.176,16.745,7.882,26,7.753h17.4c9.263-0.003,17.486,5.927,20.408,14.717c3.858,11.602,14.715,19.426,26.942,19.417 h107.442c8.648,0.405,16.948-3.441,22.228-10.301s6.876-15.868,4.272-24.124c-0.933-3.604-2.017-7.362-3.142-11.229 c-4.001-11.68-6.393-23.85-7.108-36.175c0-16.158,8.767-30.004,18.917-46.037c11.833-18.696,25.25-39.883,25.25-68.4 c0.553-20.882-3.115-41.661-10.783-61.092C386.288,245.11,376.948,238.917,366.607,238.933z M205.565,203.7 c4.436-26.296,25.656-46.533,52.133-49.717c2.299-0.257,4.611-0.386,6.925-0.388c14.682-0.046,28.854,5.381,39.75,15.221 c21.09,18.803,26.052,49.844,11.874,74.284l-0.057,0.074c-1.193,2.046-2.498,4.024-3.908,5.926l-0.125,0.172 c-1.279,1.702-2.652,3.332-4.111,4.882c-0.196,0.208-0.365,0.434-0.563,0.64c-1.414,1.462-2.754,2.995-4.014,4.593 c-9.207,10.704-13.98,24.519-13.345,38.624c0,0.731-0.095,1.459-0.282,2.166c-0.057,0.525-0.161,1.043-0.313,1.549 c-0.284,0.629-0.642,1.221-1.069,1.764c-0.215,0.377-0.457,0.736-0.726,1.077c-0.561,0.529-1.192,0.978-1.875,1.336 c-0.286,0.222-0.586,0.424-0.899,0.607c-1.057,0.454-2.195,0.688-3.346,0.69h-34.133c-4.713-0.007-8.531-3.829-8.533-8.542 c0.282-16.203-5.845-31.862-17.05-43.571c-3.489-3.582-6.518-7.585-9.017-11.917l-0.098-0.126 C205.945,231.143,203.396,217.255,205.565,203.7z M384.015,315.733c0,23.567-11.492,41.717-22.6,59.271 c-10.608,16.746-21.567,34.058-21.567,55.167c0.684,13.937,3.304,27.71,7.783,40.925c1.075,3.704,2.116,7.308,3.017,10.754 c1.057,3.201,0.568,6.711-1.325,9.5c-2.169,2.48-5.371,3.806-8.658,3.583H233.223c-4.882,0.002-9.216-3.122-10.758-7.754 c-5.236-15.761-19.983-26.393-36.592-26.379h-17.4c-5.781,0.12-11.461-1.525-16.283-4.717c-3.55-2.463-4.35-4.2-4.5-4.658 c-0.533-1.614-0.416-3.371,0.325-4.9c3.438-6.995,2.935-15.285-1.325-21.813l-3.15-4.729l0.683-0.688 c1.604-1.599,2.507-3.77,2.508-6.036c0.002-2.265-0.898-4.438-2.5-6.039l-6.933-6.925l2.892-5.775 c1.842-3.691,0.783-8.171-2.517-10.646l-13.584-10.184c-2.275-1.586-3.005-4.623-1.7-7.071 c3.984-5.724,8.496-11.063,13.475-15.946c8.367-8.779,15.583-16.358,15.583-24.808c-0.173-5.647-1.204-11.234-3.058-16.571 c-2.112-6.172-3.228-12.64-3.308-19.163c0.896-10.835,4.747-21.217,11.133-30.017c1.563-2.55,4.335-4.108,7.325-4.117h37.242 c0.325,0.486,0.696,0.923,1.03,1.4c0.797,1.128,1.595,2.249,2.458,3.339c1.191,1.522,2.447,2.964,3.733,4.37 c0.379,0.414,0.698,0.867,1.087,1.274c8.285,8.698,12.871,20.271,12.791,32.283c0.015,14.132,11.468,25.585,25.6,25.6h34.133 c1.759-0.002,3.512-0.185,5.233-0.546c0.085-0.018,0.162-0.059,0.247-0.077c1.591-0.344,3.146-0.841,4.642-1.483 c0.445-0.192,0.841-0.475,1.274-0.691c1.081-0.513,2.125-1.1,3.124-1.759c0.613-0.421,1.146-0.945,1.721-1.421 c0.738-0.576,1.443-1.192,2.114-1.845c0.125-0.129,0.28-0.22,0.403-0.352c0.431-0.465,0.74-1.016,1.133-1.508 c0.587-0.701,1.137-1.433,1.646-2.193c0.398-0.627,0.715-1.285,1.056-1.943c0.471-0.868,0.891-1.762,1.257-2.679 c0.252-0.662,0.43-1.339,0.628-2.019c0.291-0.958,0.525-1.932,0.7-2.918c0.127-0.766,0.175-1.532,0.233-2.309 c0.047-0.624,0.188-1.22,0.188-1.855c-0.151-11.814,4.289-23.225,12.385-31.83c0.148-0.157,0.315-0.355,0.456-0.503 c1.075-1.126,2.088-2.344,3.102-3.556c1.846-2.162,3.571-4.425,5.168-6.777h38.281c3.476-0.009,6.618,2.071,7.967,5.275 C381.343,278.61,384.554,297.131,384.015,315.733z"/><path d="M136.548,162.133V93.867c-0.02-6.069-3.272-11.668-8.533-14.692V51.2c-0.031-28.264-22.936-51.169-51.2-51.2 c-28.264,0.031-51.169,22.936-51.2,51.2v27.974c-5.262,3.025-8.513,8.623-8.533,14.692v68.267 c0.011,9.421,7.645,17.056,17.067,17.067h85.333C128.902,179.189,136.537,171.555,136.548,162.133z M42.681,51.2 c0-18.851,15.282-34.133,34.133-34.133s34.133,15.282,34.133,34.133v25.6H42.681V51.2z M34.148,93.867h85.333v25.6H34.148V93.867 z M34.148,136.533h85.333v25.6H34.148V136.533z"/><path d="M469.348,112.145V17.067C469.337,7.645,461.702,0.011,452.281,0h-25.6c-4.713,0-8.533,3.82-8.533,8.533 s3.82,8.533,8.533,8.533h25.6v17.067h-17.067c-4.713,0-8.533,3.82-8.533,8.533s3.82,8.533,8.533,8.533h17.067v60.945 c-17.135,4.463-27.998,21.306-24.995,38.757c3.003,17.451,18.87,29.694,36.512,28.173c17.642-1.521,31.179-16.3,31.15-34.008 C494.902,129.545,484.379,116.014,469.348,112.145z M460.815,162.133c-9.426,0-17.067-7.641-17.067-17.067 c0-9.426,7.641-17.067,17.067-17.067s17.067,7.641,17.067,17.067C477.87,154.488,470.236,162.123,460.815,162.133z"/></symbol><symbol id="value" viewBox="0 0 64 64"><title>value</title><path d="M51.69,38.434,40.016,45.171a3.973,3.973,0,0,0-2.336-1.737L24.385,39.872a8.947,8.947,0,0,0-6.7.826L13,43.3V41a1,1,0,0,0-1-1H4a1,1,0,0,0-1,1V61a1,1,0,0,0,1,1h8a1,1,0,0,0,1-1V58.253A8.923,8.923,0,0,0,18.313,60h9.562a9.016,9.016,0,0,0,4.469-1.188l23.35-13.448A3.97,3.97,0,0,0,57.68,41.9a4,4,0,0,0-5.99-3.466ZM11,60H5V42h6ZM54.691,43.633,31.349,57.078A7.017,7.017,0,0,1,27.875,58H18.313a6.951,6.951,0,0,1-4.949-2.051L13,55.585v-10l5.656-3.142a6.957,6.957,0,0,1,5.211-.642l13.295,3.562a2,2,0,1,1-1.035,3.863l-8.783-2.353a1,1,0,1,0-.518,1.932S36.3,51.3,36.651,51.3a3.934,3.934,0,0,0,3.971-4.167l12.065-6.965a2,2,0,0,1,2.721.723,2.031,2.031,0,0,1,.272,1.01A1.984,1.984,0,0,1,54.691,43.633Z"/><path d="M39,42A12,12,0,1,0,27,30,12.013,12.013,0,0,0,39,42Zm0-22A10,10,0,1,1,29,30,10.011,10.011,0,0,1,39,20Z"/><path d="M18,15a1,1,0,0,1-1-1,1,1,0,0,0-2,0,3,3,0,0,0,2,2.816V18a1,1,0,0,0,2,0V16.816A2.993,2.993,0,0,0,18,11a1,1,0,1,1,1-1,1,1,0,0,0,2,0,3,3,0,0,0-2-2.816V6a1,1,0,0,0-2,0V7.184A2.993,2.993,0,0,0,18,13a1,1,0,0,1,0,2Z"/><path d="M18,22A10,10,0,1,0,8,12,10.011,10.011,0,0,0,18,22ZM18,4a8,8,0,1,1-8,8A8.009,8.009,0,0,1,18,4Z"/><path d="M39,35a2,2,0,0,1-2-2,1,1,0,0,0-2,0,4,4,0,0,0,3,3.858V38a1,1,0,0,0,2,0V36.858A3.992,3.992,0,0,0,39,29a2,2,0,1,1,2-2,1,1,0,0,0,2,0,4,4,0,0,0-3-3.858V22a1,1,0,0,0-2,0v1.142A3.992,3.992,0,0,0,39,31a2,2,0,0,1,0,4Z"/><path d="M54,2a8,8,0,1,0,8,8A8.009,8.009,0,0,0,54,2Zm0,11a1,1,0,0,1-1-1,1,1,0,0,0-2,0,3,3,0,0,0,2,2.816V15.91A5.993,5.993,0,0,1,53,4.09V5.184A2.993,2.993,0,0,0,54,11a1,1,0,0,1,0,2Zm1,2.91V14.816A2.993,2.993,0,0,0,54,9a1,1,0,1,1,1-1,1,1,0,0,0,2,0,3,3,0,0,0-2-2.816V4.09a5.993,5.993,0,0,1,0,11.82Z"/></symbol><symbol id="trademark" viewBox="0 0 512 512"><title>trademark</title><g> <g> <path d="M482.041,16.771C479.553,16.26,477.01,16,474.481,16c-15.011,0-28.534,8.926-34.451,22.738l-52.28,122.036L335.47,38.737 c-5.917-13.811-19.444-22.734-34.462-22.734c-2.523,0-5.061,0.258-7.546,0.768C276.101,20.333,263.5,35.782,263.5,53.505V458.5 c0,20.678,16.822,37.5,37.5,37.5c20.678,0,37.5-16.822,37.5-37.5V236.271l14.78,34.5c5.917,13.811,19.447,22.733,34.47,22.733 s28.554-8.923,34.47-22.733l14.78-34.5V458.5c0,20.678,16.822,37.5,37.5,37.5c20.678,0,37.5-16.822,37.5-37.5V53.505 C512,35.782,499.399,20.333,482.041,16.771z M497,458.5c0,12.406-10.093,22.5-22.5,22.5c-12.407,0-22.5-10.094-22.5-22.5V199.718 c0-3.562-2.504-6.631-5.993-7.347c-0.505-0.104-1.011-0.154-1.51-0.154c-2.951,0-5.692,1.748-6.891,4.548l-29.174,68.101 c-3.55,8.285-11.668,13.64-20.682,13.64c-9.014,0-17.132-5.354-20.682-13.64l-29.174-68.101c-1.402-3.274-4.913-5.111-8.401-4.394 c-3.488,0.716-5.993,3.785-5.993,7.347V458.5c0,12.406-10.093,22.5-22.5,22.5c-12.407,0-22.5-10.094-22.5-22.5V53.505 c0-10.634,7.561-19.903,17.976-22.04c1.494-0.307,3.019-0.462,4.532-0.462c9.008,0,17.124,5.354,20.674,13.642l59.174,138.129 c1.182,2.759,3.894,4.547,6.894,4.547s5.712-1.788,6.894-4.547l59.174-138.129C457.369,36.355,465.479,31,474.481,31 c1.516,0,3.042,0.156,4.541,0.464C489.439,33.602,497,42.871,497,53.505V458.5z"/> </g> </g><g> <g> <path d="M211,16H37.5C16.822,16,0,32.822,0,53.5S16.822,91,37.5,91h49.25v367.5c0,20.678,16.822,37.5,37.5,37.5 c20.678,0,37.5-16.822,37.5-37.5V286c0-4.143-3.358-7.5-7.5-7.5c-4.142,0-7.5,3.357-7.5,7.5v172.5c0,12.406-10.093,22.5-22.5,22.5 s-22.5-10.094-22.5-22.5v-375c0-4.143-3.358-7.5-7.5-7.5H37.5C25.093,76,15,65.906,15,53.5S25.093,31,37.5,31H211 c12.407,0,22.5,10.094,22.5,22.5S223.407,76,211,76h-56.75c-4.142,0-7.5,3.357-7.5,7.5V256c0,4.143,3.358,7.5,7.5,7.5 c4.142,0,7.5-3.357,7.5-7.5V91H211c20.678,0,37.5-16.822,37.5-37.5S231.678,16,211,16z"/> </g> </g></symbol></svg>